# xmcd
#
# Track frame offsets:
#	150
#	22211
#	41785
#	89484
#	106995
#	131077
#	153003
#	172080
#	197645
#	215362
#	233270
#	247790
#	267962
#	271422
#	287905
#	315289
#
# Disc length: 4329 seconds
#
# Revision: 0
# Processed by: cddbd v1.5.2PL0 Copyright (c) Steve Scherf et al.
# Submitted via: EasyCDDAExtractor 11.0.2.1
#
DISCID=db10e710
DTITLE=Tom Waits - Real Gone
DYEAR=2004
DGENRE=Blues
TTITLE0=Top Of The Hill
TTITLE1=Hoist That Rag
TTITLE2=Sins Of The Father
TTITLE3=Shake It
TTITLE4=Don't Go Into The Barn
TTITLE5=How's It Gonna End
TTITLE6=Metropolitan Glide
TTITLE7=Dead And Lovely
TTITLE8=Circus
TTITLE9=Trampled Rose
TTITLE10=Green Grass
TTITLE11=Baby Gonna Leave Me
TTITLE12=Clang Boom Steam
TTITLE13=Make It Rain
TTITLE14=Day After Tomorrow
TTITLE15=Clang Boom
EXTD=
EXTT0=
EXTT1=
EXTT2=
EXTT3=
EXTT4=
EXTT5=
EXTT6=
EXTT7=
EXTT8=
EXTT9=
EXTT10=
EXTT11=
EXTT12=
EXTT13=
EXTT14=
EXTT15=
PLAYORDER=
